<svg width="47" height="45" viewBox="0 0 47 45" fill="none" xmlns="http://www.w3.org/2000/svg">
<path d="M39.683 4.60829C39.3151 4.48521 38.8808 4.42664 38.3928 4.42664C37.6262 4.42664 37.0363 4.59126 36.6376 4.91768C36.402 5.10398 36.1804 5.42266 35.9646 5.86313H40.8363C40.7885 5.25803 40.4069 4.83924 39.683 4.60829Z" fill="#735B06"/>
<path d="M30.4479 7.37368C30.9145 7.57391 31.398 7.66939 31.9061 7.66939C32.5159 7.66939 32.9902 7.55533 33.338 7.31691C33.6846 7.08442 33.9276 6.76729 34.06 6.37146H29.712C29.7411 6.84083 29.986 7.17344 30.4479 7.37368Z" fill="#735B06"/>
<path d="M35.5505 0C29.6704 0 24.908 2.73907 24.908 6.12323C24.908 9.50739 29.6704 12.2495 35.5505 12.2495C41.4292 12.2495 46.1914 9.50739 46.1914 6.12323C46.1914 2.73907 41.4292 0 35.5505 0ZM44.0019 6.37275H42.2036C42.0867 7.40438 41.4537 8.10805 40.2959 8.47601C39.6691 8.68089 38.8302 8.78075 37.7676 8.78075V7.8353C38.616 7.8046 39.2258 7.73054 39.6167 7.60746C40.3142 7.38271 40.7054 6.97165 40.7963 6.37275H35.7492C35.4981 7.14093 35.0718 7.71222 34.4819 8.07709C33.883 8.44505 33.0652 8.62671 32.0199 8.62671C31.0775 8.62671 30.2278 8.43266 29.4779 8.03399C28.7296 7.63971 28.3446 7.0839 28.3294 6.3712H27.0962V5.86312H28.3141C28.4019 5.15946 28.7621 4.61603 29.3966 4.23414C30.0386 3.85688 30.8763 3.66129 31.9265 3.63987V4.57294C31.4522 4.599 31.0504 4.66996 30.7116 4.79459C30.0926 5.01934 29.76 5.37518 29.7308 5.86158H34.2391C34.6455 5.03947 35.0228 4.48056 35.3662 4.1833C35.9497 3.70284 36.8105 3.4657 37.9467 3.4657C39.5896 3.4657 40.7537 3.77044 41.445 4.38638C41.8284 4.72983 42.0808 5.22087 42.2041 5.86132H44.0024C44.0019 5.86158 44.0019 6.37275 44.0019 6.37275Z" fill="#735B06"/>
<path d="M35.5505 13.0688C30.1506 13.0688 25.7102 10.7563 25.0127 7.76147C24.9511 8.03087 24.908 8.30335 24.908 8.58049C24.908 11.9631 29.6704 14.7068 35.5505 14.7068C41.4292 14.7068 46.1914 11.9646 46.1914 8.58049C46.1914 8.3018 46.1468 8.03087 46.0867 7.76147C45.3892 10.7563 40.9472 13.0688 35.5505 13.0688Z" fill="#735B06"/>
<path d="M35.5505 15.5246C30.1506 15.5246 25.7102 13.2121 25.0127 10.2173C24.9511 10.4867 24.908 10.7592 24.908 11.0363C24.908 14.4189 29.6704 17.1626 35.5505 17.1626C41.4292 17.1626 46.1914 14.4205 46.1914 11.0363C46.1914 10.7576 46.1468 10.4867 46.0867 10.2173C45.3892 13.2121 40.9472 15.5246 35.5505 15.5246Z" fill="#735B06"/>
<path d="M35.5505 17.9819C30.1506 17.9819 25.7102 15.6693 25.0127 12.6746C24.9511 12.944 24.908 13.2164 24.908 13.492C24.908 16.8762 29.6704 19.6183 35.5505 19.6183C41.4292 19.6183 46.1914 16.8762 46.1914 13.492C46.1914 13.2149 46.1468 12.944 46.0867 12.6746C45.3892 15.6693 40.9472 17.9819 35.5505 17.9819Z" fill="#735B06"/>
<path d="M35.5505 20.4378C30.1506 20.4378 25.7102 18.1268 25.0127 15.1305C24.9511 15.3999 24.908 15.6724 24.908 15.9495C24.908 19.3337 29.6704 22.0758 35.5505 22.0758C41.4292 22.0758 46.1914 19.3352 46.1914 15.9495C46.1914 15.6708 46.1468 15.3999 46.0867 15.1305C45.3892 18.1266 40.9472 20.4378 35.5505 20.4378Z" fill="#735B06"/>
<path d="M35.5505 23.2569C30.1506 23.2569 25.7102 20.9444 25.0127 17.9496C24.9511 18.219 24.908 18.4915 24.908 18.7686C24.908 22.1512 29.6704 24.8949 35.5505 24.8949C41.4292 24.8949 46.1914 22.1528 46.1914 18.7686C46.1914 18.4899 46.1468 18.219 46.0867 17.9496C45.3892 20.9444 40.9472 23.2569 35.5505 23.2569Z" fill="#735B06"/>
<path d="M35.5505 25.7112C30.1506 25.7112 25.7102 23.3986 25.0127 20.4054C24.9511 20.6748 24.908 20.9473 24.908 21.2244C24.908 24.6086 29.6704 27.3507 35.5505 27.3507C41.4292 27.3507 46.1914 24.6086 46.1914 21.2244C46.1914 20.9457 46.1468 20.6748 46.0867 20.4054C45.3892 23.4002 40.9472 25.7112 35.5505 25.7112Z" fill="#735B06"/>
<path d="M35.5505 28.17C30.1506 28.17 25.7102 25.8559 25.0127 22.8627C24.9511 23.1305 24.908 23.4061 24.908 23.6801C24.908 27.0612 29.6704 29.8065 35.5505 29.8065C41.4292 29.8065 46.1914 27.0612 46.1914 23.6801C46.1914 23.4015 46.1468 23.1321 46.0867 22.8627C45.3892 25.8559 40.9472 28.17 35.5505 28.17Z" fill="#735B06"/>
<path d="M35.5505 30.6256C30.1506 30.6256 25.7102 28.3131 25.0127 25.3214C24.9511 25.5893 24.908 25.8617 24.908 26.1373C24.908 29.5199 29.6704 32.2636 35.5505 32.2636C41.4292 32.2636 46.1914 29.5199 46.1914 26.1373C46.1914 25.8586 46.1468 25.5893 46.0867 25.3214C45.3892 28.3131 40.9472 30.6256 35.5505 30.6256Z" fill="#735B06"/>
<path d="M14.7782 27.0877C14.4087 26.9662 13.9759 26.9076 13.4864 26.9076C12.7211 26.9076 12.1314 27.0722 11.7328 27.3986C11.4956 27.5849 11.2755 27.9005 11.0598 28.3425H15.9314C15.8806 27.7374 15.4989 27.3171 14.7782 27.0877Z" fill="#735B06"/>
<path d="M5.54305 29.8528C6.0096 30.053 6.49317 30.147 7.00126 30.147C7.61102 30.147 8.08376 30.0345 8.43315 29.796C8.7797 29.5635 9.02278 29.2449 9.15516 28.8506H4.80402C4.83627 29.3187 5.07806 29.6541 5.54305 29.8528Z" fill="#735B06"/>
<path d="M10.641 22.481C4.76091 22.481 0 25.2185 0 28.6026C0 31.9883 4.76091 34.729 10.641 34.729C16.521 34.729 21.2835 31.9883 21.2835 28.6026C21.2835 25.2185 16.5213 22.481 10.641 22.481ZM19.0924 28.8537H17.2941C17.1785 29.8822 16.5458 30.5859 15.3879 30.9554C14.7612 31.1603 13.9223 31.2586 12.8581 31.2586V30.3147C13.7065 30.284 14.3163 30.2099 14.7072 30.0869C15.4063 29.8621 15.799 29.4511 15.8867 28.8537H10.8412C10.5901 29.6203 10.1623 30.1916 9.57395 30.5549C8.97503 30.9245 8.15729 31.1046 7.1104 31.1046C6.16803 31.1046 5.31984 30.909 4.56996 30.5119C3.82008 30.1163 3.43508 29.5618 3.41986 28.8491H2.18796V28.341H3.40438C3.49521 27.6373 3.85389 27.0923 4.48842 26.712C5.12888 26.3332 5.96804 26.1392 7.01674 26.1177V27.0493C6.544 27.0753 6.13913 27.1447 5.80186 27.2709C5.18436 27.4957 4.85175 27.8515 4.82104 28.3363H9.33242C9.73729 27.5158 10.1146 26.9569 10.458 26.6581C11.0399 26.1776 11.9023 25.9405 13.0372 25.9405C14.6817 25.9405 15.8457 26.2452 16.537 26.8627C16.9189 27.2077 17.1713 27.6987 17.2946 28.3361H19.0929V28.8537H19.0924Z" fill="#735B06"/>
<path d="M10.641 35.548C5.24113 35.548 0.802259 33.234 0.104766 30.2407C0.0415451 30.5088 0 30.7813 0 31.0584C0 34.4411 4.76091 37.1848 10.641 37.1848C16.521 37.1848 21.2835 34.4426 21.2835 31.0584C21.2835 30.7782 21.2388 30.5088 21.1787 30.241C20.4828 33.234 16.0392 35.548 10.641 35.548Z" fill="#735B06"/>
<path d="M10.641 38.004C5.24113 38.004 0.802259 35.6915 0.104766 32.6982C0.0415451 32.9645 0 33.2386 0 33.5157C0 36.8983 4.76091 39.642 10.641 39.642C16.521 39.642 21.2835 36.8999 21.2835 33.5157C21.2835 33.237 21.2388 32.9661 21.1787 32.6982C20.4828 35.6912 16.0392 38.004 10.641 38.004Z" fill="#735B06"/>
<path d="M10.641 40.4628C5.24113 40.4628 0.802259 38.1503 0.104766 35.1555C0.0415451 35.4234 0 35.6958 0 35.973C0 39.3556 4.76091 42.0993 10.641 42.0993C16.521 42.0993 21.2835 39.3571 21.2835 35.973C21.2835 35.6943 21.2388 35.4249 21.1787 35.1555C20.4828 38.15 16.0392 40.4628 10.641 40.4628Z" fill="#735B06"/>
<path d="M10.641 42.9171C5.24113 42.9171 0.802259 40.603 0.104766 37.6097C0.0415451 37.8776 0 38.1532 0 38.429C0 41.8116 4.76091 44.5553 10.641 44.5553C16.521 44.5553 21.2835 41.8132 21.2835 38.429C21.2835 38.1488 21.2388 37.8778 21.1787 37.61C20.4828 40.603 16.0392 42.9171 10.641 42.9171Z" fill="#735B06"/>
<path d="M14.7782 8.17568C14.4087 8.05259 13.9759 7.99402 13.488 7.99402C12.7213 7.99402 12.1314 8.15865 11.7328 8.48506C11.4972 8.67137 11.2755 8.99004 11.0598 9.43051H15.9314C15.8806 8.82567 15.4989 8.40533 14.7782 8.17568Z" fill="#735B06"/>
<path d="M5.54305 10.9411C6.0096 11.1397 6.49472 11.2368 7.00126 11.2368C7.61102 11.2368 8.0853 11.1227 8.43315 10.8843C8.78125 10.6518 9.02278 10.3347 9.15516 9.93884H4.80402C4.83627 10.4067 5.07806 10.7408 5.54305 10.9411Z" fill="#735B06"/>
<path d="M10.641 3.56763C4.76246 3.56763 0 6.30669 0 9.69085C0 13.075 4.76246 15.8172 10.641 15.8172C16.521 15.8172 21.2835 13.075 21.2835 9.69085C21.2835 6.30669 16.5213 3.56763 10.641 3.56763ZM19.0955 9.93883H17.2941C17.1785 10.9705 16.5458 11.6726 15.3879 12.0421C14.7612 12.2454 13.9223 12.3468 12.8581 12.3468V11.4014C13.7065 11.3707 14.3163 11.2966 14.7072 11.1735C15.4063 10.9488 15.799 10.5377 15.8867 9.93883H10.8412C10.5901 10.707 10.1654 11.2783 9.57395 11.6432C8.97658 12.0111 8.15729 12.1928 7.1104 12.1928C6.16803 12.1928 5.31984 11.9972 4.56996 11.6001C3.82008 11.2058 3.43508 10.65 3.41986 9.93728H2.18796V9.4292H3.40438C3.49521 8.72554 3.85389 8.18211 4.48842 7.80021C5.12888 7.42296 5.96959 7.22737 7.01674 7.20595V8.13902C6.544 8.16353 6.13913 8.23604 5.80186 8.36067C5.18436 8.58542 4.85175 8.94125 4.82104 9.42766H9.33242C9.73884 8.60555 10.1146 8.04664 10.458 7.74783C11.0399 7.26891 11.9023 7.03178 13.0372 7.03178C14.6817 7.03178 15.8457 7.33652 16.537 7.95246C16.9189 8.2959 17.1713 8.78695 17.2946 9.4274H19.096L19.0955 9.93883Z" fill="#735B06"/>
<path d="M10.641 16.6346C5.24423 16.6346 0.802259 14.3221 0.104766 11.3273C0.0446416 11.5969 0 11.8694 0 12.1465C0 15.5292 4.76246 18.2729 10.641 18.2729C16.521 18.2729 21.2835 15.5307 21.2835 12.1465C21.2835 11.8679 21.2404 11.5969 21.1787 11.3275C20.4828 14.3221 16.0408 16.6346 10.641 16.6346Z" fill="#735B06"/>
<path d="M10.641 19.0922C5.24423 19.0922 0.802259 16.7797 0.104766 13.7849C0.0446416 14.0543 0 14.3268 0 14.6024C0 17.9865 4.76246 20.7287 10.641 20.7287C16.521 20.7287 21.2835 17.9865 21.2835 14.6024C21.2835 14.3252 21.2404 14.0543 21.1787 13.7849C20.4828 16.7794 16.0408 19.0922 10.641 19.0922Z" fill="#735B06"/>
</svg>
